<svg width="44" height="66" viewBox="0 0 44 66" fill="none" xmlns="http://www.w3.org/2000/svg">
<g clip-path="url(#clip0_6_3461)">
<path d="M11.2522 65.5C17.1851 65.5 22.0001 60.6467 22.0001 54.6667V43.8333H11.2522C5.31943 43.8333 0.504395 48.6867 0.504395 54.6667C0.504395 60.6467 5.31943 65.5 11.2522 65.5Z" fill="#0ACF83"/>
<path d="M0.504395 33C0.504395 27.02 5.31943 22.1667 11.2522 22.1667H22.0001V43.8333H11.2522C5.31943 43.8333 0.504395 38.98 0.504395 33Z" fill="#A259FF"/>
<path d="M0.504395 11.3333C0.504395 5.35333 5.31943 0.5 11.2522 0.5H22.0001V22.1667H11.2522C5.31943 22.1667 0.504395 17.3133 0.504395 11.3333Z" fill="#F24E1E"/>
<path d="M22 0.5H32.7478C38.6807 0.5 43.4957 5.35333 43.4957 11.3333C43.4957 17.3133 38.6807 22.1667 32.7478 22.1667H22V0.5Z" fill="#FF7262"/>
<path d="M43.4957 33C43.4957 38.98 38.6807 43.8333 32.7478 43.8333C26.815 43.8333 22 38.98 22 33C22 27.02 26.815 22.1667 32.7478 22.1667C38.6807 22.1667 43.4957 27.02 43.4957 33Z" fill="#1ABCFE"/>
</g>
<defs>
<clipPath id="clip0_6_3461">
<rect width="43" height="65" fill="white" transform="translate(0.5 0.5)"/>
</clipPath>
</defs>
</svg>
