<svg width="15" height="16" viewBox="0 0 15 16" fill="none" xmlns="http://www.w3.org/2000/svg">
<path d="M8.78331 1.89401L10.0816 4.49055C10.2586 4.84462 10.7307 5.1987 11.1241 5.25771L13.4748 5.65112C14.9796 5.90684 15.3337 6.98874 14.2518 8.07063L12.4224 9.90984C12.1175 10.2147 11.9405 10.8147 12.0388 11.2475L12.5601 13.5194C12.9732 15.3095 12.0191 16.0078 10.4357 15.0734L8.23253 13.7653C7.82928 13.5293 7.18014 13.5293 6.77689 13.7653L4.56393 15.0636C2.98044 15.9979 2.02641 15.2996 2.43949 13.5096L2.96077 11.2376C3.05912 10.8147 2.88208 10.2147 2.57719 9.90001L0.757644 8.08046C-0.324247 6.99857 0.0298261 5.90684 1.53464 5.66096L3.88529 5.26754C4.27871 5.1987 4.75081 4.85446 4.92784 4.50039L6.22611 1.90385C6.92442 0.487552 8.085 0.487552 8.78331 1.89401Z" fill="#ACACAC"/>
</svg>
