<svg width="16" height="16" viewBox="0 0 16 16" fill="none" xmlns="http://www.w3.org/2000/svg">
<path d="M9.35136 1.89401L10.6496 4.49055C10.8267 4.84462 11.2988 5.1987 11.6922 5.25771L14.0428 5.65112C15.5476 5.90684 15.9017 6.98874 14.8198 8.07063L12.9905 9.90984C12.6856 10.2147 12.5085 10.8147 12.6069 11.2475L13.1281 13.5194C13.5412 15.3095 12.5872 16.0078 11.0037 15.0734L8.80058 13.7653C8.39733 13.5293 7.7482 13.5293 7.34495 13.7653L5.13199 15.0636C3.54849 15.9979 2.59446 15.2996 3.00755 13.5096L3.52882 11.2376C3.62718 10.8147 3.45014 10.2147 3.14524 9.90001L1.3257 8.08046C0.243807 6.99857 0.59788 5.90684 2.10269 5.66096L4.45335 5.26754C4.84676 5.1987 5.31886 4.85446 5.4959 4.50039L6.79417 1.90385C7.49248 0.487552 8.65305 0.487552 9.35136 1.89401Z" fill="#ACACAC"/>
</svg>
