<svg width="16" height="16" viewBox="0 0 16 16" fill="none" xmlns="http://www.w3.org/2000/svg">
<path d="M9.07909 1.89401L10.3774 4.49055C10.5544 4.84462 11.0265 5.1987 11.4199 5.25771L13.7706 5.65112C15.2754 5.90684 15.6294 6.98874 14.5476 8.07063L12.7182 9.90984C12.4133 10.2147 12.2362 10.8147 12.3346 11.2475L12.8559 13.5194C13.269 15.3095 12.3149 16.0078 10.7314 15.0734L8.5283 13.7653C8.12505 13.5293 7.47592 13.5293 7.07267 13.7653L4.85971 15.0636C3.27621 15.9979 2.32218 15.2996 2.73527 13.5096L3.25654 11.2376C3.3549 10.8147 3.17786 10.2147 2.87296 9.90001L1.05342 8.08046C-0.0284711 6.99857 0.325602 5.90684 1.83041 5.66096L4.18107 5.26754C4.57448 5.1987 5.04658 4.85446 5.22362 4.50039L6.52189 1.90385C7.2202 0.487552 8.38077 0.487552 9.07909 1.89401Z" fill="#ACACAC"/>
</svg>
