<svg width="16" height="16" viewBox="0 0 16 16" fill="none" xmlns="http://www.w3.org/2000/svg">
<path d="M9.21519 1.89401L10.5135 4.49055C10.6905 4.84462 11.1626 5.1987 11.556 5.25771L13.9067 5.65112C15.4115 5.90684 15.7656 6.98874 14.6837 8.07063L12.8543 9.90984C12.5494 10.2147 12.3723 10.8147 12.4707 11.2475L12.992 13.5194C13.4051 15.3095 12.451 16.0078 10.8675 15.0734L8.66441 13.7653C8.26116 13.5293 7.61203 13.5293 7.20878 13.7653L4.99582 15.0636C3.41232 15.9979 2.45829 15.2996 2.87138 13.5096L3.39265 11.2376C3.49101 10.8147 3.31397 10.2147 3.00907 9.90001L1.18953 8.08046C0.107637 6.99857 0.461711 5.90684 1.96652 5.66096L4.31718 5.26754C4.71059 5.1987 5.18269 4.85446 5.35973 4.50039L6.658 1.90385C7.35631 0.487552 8.51688 0.487552 9.21519 1.89401Z" fill="#ACACAC"/>
</svg>
