<svg width="15" height="16" viewBox="0 0 15 16" fill="none" xmlns="http://www.w3.org/2000/svg">
<path d="M8.64714 1.89401L9.94541 4.49055C10.1224 4.84462 10.5945 5.1987 10.988 5.25771L13.3386 5.65112C14.8434 5.90684 15.1975 6.98874 14.1156 8.07063L12.2862 9.90984C11.9813 10.2147 11.8043 10.8147 11.9026 11.2475L12.4239 13.5194C12.837 15.3095 11.883 16.0078 10.2995 15.0734L8.09636 13.7653C7.69311 13.5293 7.04397 13.5293 6.64072 13.7653L4.42776 15.0636C2.84427 15.9979 1.89024 15.2996 2.30332 13.5096L2.8246 11.2376C2.92295 10.8147 2.74591 10.2147 2.44102 9.90001L0.621474 8.08046C-0.460417 6.99857 -0.106343 5.90684 1.39847 5.66096L3.74912 5.26754C4.14254 5.1987 4.61464 4.85446 4.79167 4.50039L6.08994 1.90385C6.78825 0.487552 7.94883 0.487552 8.64714 1.89401Z" fill="#ACACAC"/>
</svg>
