<svg width="27" height="27" viewBox="0 0 27 27" fill="none" xmlns="http://www.w3.org/2000/svg">
<path d="M15.5394 4.2764L17.468 8.1335C17.731 8.67043 18.4323 9.18544 19.024 9.28406L22.5195 9.86481C24.7548 10.2374 25.2808 11.8591 23.67 13.4589L20.9525 16.1764C20.4923 16.6367 20.2403 17.5242 20.3827 18.1598L21.1607 21.5238C21.7744 24.1865 20.3608 25.2165 18.0049 23.8249L14.7286 21.8854C14.1369 21.5347 13.1616 21.5347 12.559 21.8854L9.28261 23.8249C6.93766 25.2165 5.51317 24.1755 6.1268 21.5238L6.90479 18.1598C7.04724 17.5242 6.79521 16.6367 6.33499 16.1764L3.61749 13.4589C2.01767 11.8591 2.53268 10.2374 4.76804 9.86481L8.26354 9.28406C8.8443 9.18544 9.54559 8.67043 9.80858 8.1335L11.7371 4.2764C12.7891 2.18348 14.4985 2.18348 15.5394 4.2764Z" stroke="#D4A80A" stroke-width="1.64365" stroke-linecap="round" stroke-linejoin="round"/>
</svg>
