<svg width="27" height="27" viewBox="0 0 27 27" fill="none" xmlns="http://www.w3.org/2000/svg">
<path d="M15.5941 4.2764L17.5227 8.1335C17.7857 8.67043 18.487 9.18544 19.0787 9.28406L22.5742 9.86481C24.8095 10.2374 25.3355 11.8591 23.7247 13.4589L21.0072 16.1764C20.547 16.6367 20.295 17.5242 20.4374 18.1598L21.2154 21.5238C21.829 24.1865 20.4155 25.2165 18.0596 23.8249L14.7833 21.8854C14.1915 21.5347 13.2163 21.5347 12.6136 21.8854L9.3373 23.8249C6.99235 25.2165 5.56785 24.1755 6.18148 21.5238L6.95948 18.1598C7.10193 17.5242 6.8499 16.6367 6.38968 16.1764L3.67218 13.4589C2.07236 11.8591 2.58737 10.2374 4.82273 9.86481L8.31823 9.28406C8.89899 9.18544 9.60028 8.67043 9.86326 8.1335L11.7918 4.2764C12.8438 2.18348 14.5531 2.18348 15.5941 4.2764Z" stroke="#D4A80A" stroke-width="1.64365" stroke-linecap="round" stroke-linejoin="round"/>
</svg>
