<svg width="27" height="27" viewBox="0 0 27 27" fill="none" xmlns="http://www.w3.org/2000/svg">
<path d="M15.5668 4.2764L17.4953 8.1335C17.7583 8.67043 18.4596 9.18544 19.0513 9.28406L22.5468 9.86481C24.7822 10.2374 25.3082 11.8591 23.6974 13.4589L20.9799 16.1764C20.5197 16.6367 20.2676 17.5242 20.4101 18.1598L21.1881 21.5238C21.8017 24.1865 20.3882 25.2165 18.0323 23.8249L14.7559 21.8854C14.1642 21.5347 13.189 21.5347 12.5863 21.8854L9.30995 23.8249C6.96501 25.2165 5.54051 24.1755 6.15414 21.5238L6.93214 18.1598C7.07458 17.5242 6.82256 16.6367 6.36234 16.1764L3.64483 13.4589C2.04501 11.8591 2.56002 10.2374 4.79539 9.86481L8.29089 9.28406C8.87164 9.18544 9.57294 8.67043 9.83592 8.1335L11.7645 4.2764C12.8164 2.18348 14.5258 2.18348 15.5668 4.2764Z" stroke="#D4A80A" stroke-width="1.64365" stroke-linecap="round" stroke-linejoin="round"/>
</svg>
