<svg width="18" height="18" viewBox="0 0 18 18" fill="none" xmlns="http://www.w3.org/2000/svg">
<path d="M1.89203 1.9411H3.1399C3.91443 1.9411 4.52402 2.60806 4.45947 3.37543L3.86423 10.5184C3.76382 11.6873 4.68896 12.6914 5.86511 12.6914H13.5029C14.5356 12.6914 15.4392 11.8451 15.5181 10.8196L15.9054 5.44086C15.9914 4.25037 15.0878 3.28219 13.8902 3.28219H4.6316" stroke="white" stroke-width="1.47531" stroke-miterlimit="10" stroke-linecap="round" stroke-linejoin="round"/>
<path d="M12.1116 16.2844C12.6067 16.2844 13.0081 15.883 13.0081 15.3879C13.0081 14.8928 12.6067 14.4915 12.1116 14.4915C11.6165 14.4915 11.2151 14.8928 11.2151 15.3879C11.2151 15.883 11.6165 16.2844 12.1116 16.2844Z" stroke="white" stroke-width="1.47531" stroke-miterlimit="10" stroke-linecap="round" stroke-linejoin="round"/>
<path d="M6.37436 16.2844C6.86946 16.2844 7.27081 15.883 7.27081 15.3879C7.27081 14.8928 6.86946 14.4915 6.37436 14.4915C5.87926 14.4915 5.47791 14.8928 5.47791 15.3879C5.47791 15.883 5.87926 16.2844 6.37436 16.2844Z" stroke="white" stroke-width="1.47531" stroke-miterlimit="10" stroke-linecap="round" stroke-linejoin="round"/>
<path d="M6.91217 6.24408H15.5181" stroke="white" stroke-width="1.47531" stroke-miterlimit="10" stroke-linecap="round" stroke-linejoin="round"/>
</svg>
