<svg width="24" height="24" viewBox="0 0 24 24" fill="none" xmlns="http://www.w3.org/2000/svg">
<path d="M15.5289 12.1127C15.5289 14.0601 13.9553 15.6338 12.0079 15.6338C10.0605 15.6338 8.48682 14.0601 8.48682 12.1127C8.48682 10.1653 10.0605 8.59167 12.0079 8.59167C13.9553 8.59167 15.5289 10.1653 15.5289 12.1127Z" stroke="#292D32" stroke-width="1.47531" stroke-linecap="round" stroke-linejoin="round"/>
<path d="M12.008 20.2465C15.4799 20.2465 18.7157 18.2008 20.968 14.66C21.8532 13.2733 21.8532 10.9423 20.968 9.55549C18.7157 6.01475 15.4799 3.96899 12.008 3.96899C8.53612 3.96899 5.30028 6.01475 3.04798 9.55549C2.1628 10.9423 2.1628 13.2733 3.04798 14.66C5.30028 18.2008 8.53612 20.2465 12.008 20.2465Z" stroke="#292D32" stroke-width="1.47531" stroke-linecap="round" stroke-linejoin="round"/>
</svg>
