<svg width="30" height="31" viewBox="0 0 30 31" fill="none" xmlns="http://www.w3.org/2000/svg">
<path d="M17.1066 5.00154L19.2994 9.3872C19.5984 9.99771 20.3958 10.5833 21.0686 10.6954L25.0431 11.3558C27.5848 11.7794 28.1829 13.6234 26.3514 15.4424L23.2615 18.5323C22.7382 19.0556 22.4516 20.0648 22.6136 20.7874L23.4982 24.6124C24.1959 27.6401 22.5887 28.8112 19.9099 27.2289L16.1846 25.0236C15.5118 24.6249 14.4029 24.6249 13.7176 25.0236L9.99232 27.2289C7.32604 28.8112 5.70633 27.6276 6.40405 24.6124L7.28866 20.7874C7.45063 20.0648 7.16407 19.0556 6.64078 18.5323L3.55087 15.4424C1.73182 13.6234 2.3174 11.7794 4.8591 11.3558L8.83361 10.6954C9.49395 10.5833 10.2913 9.99771 10.5904 9.3872L12.7832 5.00154C13.9793 2.62181 15.9229 2.62181 17.1066 5.00154Z" stroke="#D4A80A" stroke-width="1.86889" stroke-linecap="round" stroke-linejoin="round"/>
</svg>
