<svg width="27" height="27" viewBox="0 0 27 27" fill="none" xmlns="http://www.w3.org/2000/svg">
<path d="M15.6215 4.2764L17.55 8.1335C17.813 8.67043 18.5143 9.18544 19.106 9.28406L22.6015 9.86481C24.8369 10.2374 25.3628 11.8591 23.7521 13.4589L21.0346 16.1764C20.5743 16.6367 20.3223 17.5242 20.4648 18.1598L21.2428 21.5238C21.8564 24.1865 20.4428 25.2165 18.0869 23.8249L14.8106 21.8854C14.2189 21.5347 13.2437 21.5347 12.641 21.8854L9.36464 23.8249C7.0197 25.2165 5.5952 24.1755 6.20883 21.5238L6.98682 18.1598C7.12927 17.5242 6.87725 16.6367 6.41702 16.1764L3.69952 13.4589C2.0997 11.8591 2.61471 10.2374 4.85008 9.86481L8.34557 9.28406C8.92633 9.18544 9.62762 8.67043 9.89061 8.1335L11.8192 4.2764C12.8711 2.18348 14.5805 2.18348 15.6215 4.2764Z" stroke="#D4A80A" stroke-width="1.64365" stroke-linecap="round" stroke-linejoin="round"/>
</svg>
